,
Brought to you by  http://www.scenetime.com/signup.php
 
 Hottest scene tracker on the net !!!   
 
No fake torrents from scenebalance 
shame on those who comment fake before downloading my torrents

    seed back for speed


 



...................................NFO:.................................................[pre][img]http://leetleech.org/images/40631130446648439948.png[/img]         
     
*******************************************************************************
                    Kaboom.2010.DVDRip.XviD.AC3-PRESTiGE
*******************************************************************************

-------------------------------------------------------------------------------
                              General Information
-------------------------------------------------------------------------------

TiTLE............: Kaboom.2010.DVDRip.XviD.AC3-PRESTiGE

iMDB.............: http://www.imdb.com/title/tt1523483/

GENRE............: Comedy | Horror | Sci-Fi

LANGUAGE.........: English

FORMAT...........: AVi

SOURCE...........: DVDR-ZiRCON MANY THANKS!!

FiLE SiZE........: 1.37GB

SAMPLE iNCLUDED..: YES

SUBS.............: N/A

DURATiON.........: 1h 26mn

ENCODED by.......: akosipalos



ViDEO iNFO:

ID                               : 1
Format                           : AC-3
Format/Info                      : Audio Coding 3
Mode extension                   : CM (complete main)
Codec ID                         : 2000
Duration                         : 1h 26mn
Bit rate mode                    : Constant
Bit rate                         : 448 Kbps
Channel(s)                       : 6 channels
Channel positions                : Front: L C R, Side: L R, LFE
Sampling rate                    : 48.0 KHz
Bit depth                        : 16 bits
Stream size                      : 277 MiB (20%)
Alignment                        : Aligned on interleaves
Interleave, duration             : 64 ms (1.53 video frames)
Interleave, preload duration     : 832 ms



AUDiO iNFO:

ID                               : 1
Format                           : AC-3
Format/Info                      : Audio Coding 3
Mode extension                   : CM (complete main)
Codec ID                         : 2000
Duration                         : 1h 26mn
Bit rate mode                    : Constant
Bit rate                         : 448 Kbps
Channel(s)                       : 6 channels
Channel positions                : Front: L C R, Side: L R, LFE
Sampling rate                    : 48.0 KHz
Bit depth                        : 16 bits
Stream size                      : 277 MiB (20%)
Alignment                        : Aligned on interleaves
Interleave, duration             : 64 ms (1.53 video frames)
Interleave, preload duration     : 832 ms




-------------------------------------------------------------------------------
                                 PLOT:
-------------------------------------------------------------------------------


A sci-fi story centered on the sexual awakening of a group of college students. 


-------------------------------------------------------------------------------
                                 CAST:
-------------------------------------------------------------------------------


Thomas Dekker 

Haley Bennett

Chris Zylka


-------------------------------------------------------------------------------
                               SCREENS:
-------------------------------------------------------------------------------


[img]http://leetleech.org/images/37557410608802383277.png[/img]

[img]http://leetleech.org/images/63760164767951798099.png[/img]

[img]http://leetleech.org/images/98762031949564263893.png[/img]

[img]http://leetleech.org/images/31220760015395089012.png[/img]

[img]http://leetleech.org/images/22477066446951593527.png[/img]


-------------------------------------------------------------------------------
                             Release Notes
-------------------------------------------------------------------------------


PRESTiGE - IS LOOKING FOR?: CAMMER'S, AUDIO SUPPLIERS, SYNCER'S, RETAIL
SUPPLIER'S, SILVER'S, SCREENER'S, LINE CAPPER'S

ENCODER'S - ANYTHING AT ALL EMAIL US AT..... prestige@hushmail.me

** ** ** ** ** ** ** ** **

PRESTiGE is the level of respect at which one is regarded by others....RIzE Above Or Sink Below...


-------------------------------------------------------------------------------
                                 GREETZ:
-------------------------------------------------------------------------------


twisted ,bigguy, CTFX, HiTM4N, smelise.paranoid53, mtyy, fifer, akosipalos, DiLLoN, imagine,"the squad" , floridajoe and To All Encoders Past And Present...


-------------------------------------------------------------------------------
Generated with Cool NFO Creator - http://fly.to/coolbeans
-------------------------------------------------------------------------------
[/pre]